<mxfile host="Electron" modified="2024-01-12T07:13:15.583Z" agent="Mozilla/5.0 (Windows NT 10.0; Win64; x64) AppleWebKit/537.36 (KHTML, like Gecko) draw.io/22.1.18 Chrome/120.0.6099.199 Electron/28.1.2 Safari/537.36" etag="Cgrs6-QSTmryE3nFWU3z" version="22.1.18" type="device">
  <diagram name="第1頁" id="xg8uBqYAGHwSVvU40WZl">
    <mxGraphModel dx="1834" dy="629" grid="1" gridSize="10" guides="1" tooltips="1" connect="1" arrows="1" fold="1" page="1" pageScale="1" pageWidth="827" pageHeight="1169" math="0" shadow="0">
      <root>
        <mxCell id="0" />
        <mxCell id="1" parent="0" />
        <mxCell id="KoFQPGKLHCBhvZpColBv-1" value="&lt;font style=&quot;font-size: 30px;&quot;&gt;fun1(3)&lt;/font&gt;" style="text;html=1;strokeColor=none;fillColor=none;align=center;verticalAlign=middle;whiteSpace=wrap;rounded=0;" vertex="1" parent="1">
          <mxGeometry x="105" y="40" width="220" height="40" as="geometry" />
        </mxCell>
        <mxCell id="KoFQPGKLHCBhvZpColBv-3" value="" style="endArrow=none;html=1;rounded=0;entryX=0.5;entryY=1;entryDx=0;entryDy=0;exitX=0.5;exitY=0;exitDx=0;exitDy=0;" edge="1" parent="1" source="KoFQPGKLHCBhvZpColBv-4" target="KoFQPGKLHCBhvZpColBv-1">
          <mxGeometry width="50" height="50" relative="1" as="geometry">
            <mxPoint x="101" y="200" as="sourcePoint" />
            <mxPoint x="221" y="170" as="targetPoint" />
          </mxGeometry>
        </mxCell>
        <mxCell id="KoFQPGKLHCBhvZpColBv-4" value="&lt;font style=&quot;font-size: 30px;&quot;&gt;OUTPUT: 3&lt;/font&gt;" style="text;html=1;strokeColor=none;fillColor=none;align=center;verticalAlign=middle;whiteSpace=wrap;rounded=0;" vertex="1" parent="1">
          <mxGeometry x="-9" y="200" width="196" height="60" as="geometry" />
        </mxCell>
        <mxCell id="KoFQPGKLHCBhvZpColBv-7" value="" style="endArrow=none;html=1;rounded=0;entryX=0.5;entryY=1;entryDx=0;entryDy=0;exitX=0.5;exitY=0;exitDx=0;exitDy=0;" edge="1" parent="1" source="KoFQPGKLHCBhvZpColBv-8" target="KoFQPGKLHCBhvZpColBv-1">
          <mxGeometry width="50" height="50" relative="1" as="geometry">
            <mxPoint x="339" y="200" as="sourcePoint" />
            <mxPoint x="325" y="90" as="targetPoint" />
          </mxGeometry>
        </mxCell>
        <mxCell id="KoFQPGKLHCBhvZpColBv-8" value="&lt;font style=&quot;font-size: 30px;&quot;&gt;fun1(3 - 1)&lt;/font&gt;" style="text;html=1;strokeColor=none;fillColor=none;align=center;verticalAlign=middle;whiteSpace=wrap;rounded=0;" vertex="1" parent="1">
          <mxGeometry x="245" y="210" width="220" height="40" as="geometry" />
        </mxCell>
        <mxCell id="KoFQPGKLHCBhvZpColBv-9" value="" style="endArrow=none;html=1;rounded=0;entryX=0.5;entryY=1;entryDx=0;entryDy=0;exitX=0.5;exitY=0;exitDx=0;exitDy=0;" edge="1" source="KoFQPGKLHCBhvZpColBv-10" target="KoFQPGKLHCBhvZpColBv-8" parent="1">
          <mxGeometry width="50" height="50" relative="1" as="geometry">
            <mxPoint x="241" y="370" as="sourcePoint" />
            <mxPoint x="361" y="340" as="targetPoint" />
          </mxGeometry>
        </mxCell>
        <mxCell id="KoFQPGKLHCBhvZpColBv-10" value="&lt;font style=&quot;font-size: 30px;&quot;&gt;OUTPUT: 2&lt;/font&gt;" style="text;html=1;strokeColor=none;fillColor=none;align=center;verticalAlign=middle;whiteSpace=wrap;rounded=0;" vertex="1" parent="1">
          <mxGeometry x="131" y="370" width="196" height="60" as="geometry" />
        </mxCell>
        <mxCell id="KoFQPGKLHCBhvZpColBv-12" value="" style="endArrow=none;html=1;rounded=0;entryX=0.5;entryY=1;entryDx=0;entryDy=0;exitX=0.5;exitY=0;exitDx=0;exitDy=0;" edge="1" source="KoFQPGKLHCBhvZpColBv-13" target="KoFQPGKLHCBhvZpColBv-8" parent="1">
          <mxGeometry width="50" height="50" relative="1" as="geometry">
            <mxPoint x="479" y="370" as="sourcePoint" />
            <mxPoint x="465" y="260" as="targetPoint" />
          </mxGeometry>
        </mxCell>
        <mxCell id="KoFQPGKLHCBhvZpColBv-13" value="&lt;font style=&quot;font-size: 30px;&quot;&gt;fun1(2 - 1)&lt;/font&gt;" style="text;html=1;strokeColor=none;fillColor=none;align=center;verticalAlign=middle;whiteSpace=wrap;rounded=0;" vertex="1" parent="1">
          <mxGeometry x="375" y="380" width="220" height="40" as="geometry" />
        </mxCell>
        <mxCell id="KoFQPGKLHCBhvZpColBv-14" value="" style="endArrow=none;html=1;rounded=0;entryX=0.5;entryY=1;entryDx=0;entryDy=0;exitX=0.5;exitY=0;exitDx=0;exitDy=0;" edge="1" source="KoFQPGKLHCBhvZpColBv-15" target="KoFQPGKLHCBhvZpColBv-13" parent="1">
          <mxGeometry width="50" height="50" relative="1" as="geometry">
            <mxPoint x="371" y="540" as="sourcePoint" />
            <mxPoint x="491" y="510" as="targetPoint" />
          </mxGeometry>
        </mxCell>
        <mxCell id="KoFQPGKLHCBhvZpColBv-15" value="&lt;font style=&quot;font-size: 30px;&quot;&gt;OUTPUT: 1&lt;/font&gt;" style="text;html=1;strokeColor=none;fillColor=none;align=center;verticalAlign=middle;whiteSpace=wrap;rounded=0;" vertex="1" parent="1">
          <mxGeometry x="261" y="540" width="196" height="60" as="geometry" />
        </mxCell>
        <mxCell id="KoFQPGKLHCBhvZpColBv-17" value="" style="endArrow=none;html=1;rounded=0;entryX=0.5;entryY=1;entryDx=0;entryDy=0;exitX=0.5;exitY=0;exitDx=0;exitDy=0;" edge="1" source="KoFQPGKLHCBhvZpColBv-20" target="KoFQPGKLHCBhvZpColBv-13" parent="1">
          <mxGeometry width="50" height="50" relative="1" as="geometry">
            <mxPoint x="609" y="540" as="sourcePoint" />
            <mxPoint x="595" y="430" as="targetPoint" />
          </mxGeometry>
        </mxCell>
        <mxCell id="KoFQPGKLHCBhvZpColBv-18" value="&lt;font style=&quot;font-size: 30px;&quot;&gt;OUTPUT: 1&lt;/font&gt;" style="text;html=1;strokeColor=none;fillColor=none;align=center;verticalAlign=middle;whiteSpace=wrap;rounded=0;" vertex="1" parent="1">
          <mxGeometry x="391" y="710" width="196" height="60" as="geometry" />
        </mxCell>
        <mxCell id="KoFQPGKLHCBhvZpColBv-19" value="" style="endArrow=none;html=1;rounded=0;entryX=0.5;entryY=1;entryDx=0;entryDy=0;exitX=0.5;exitY=0;exitDx=0;exitDy=0;" edge="1" source="KoFQPGKLHCBhvZpColBv-18" target="KoFQPGKLHCBhvZpColBv-20" parent="1">
          <mxGeometry width="50" height="50" relative="1" as="geometry">
            <mxPoint x="501" y="710" as="sourcePoint" />
            <mxPoint x="621" y="680" as="targetPoint" />
          </mxGeometry>
        </mxCell>
        <mxCell id="KoFQPGKLHCBhvZpColBv-20" value="&lt;font style=&quot;font-size: 30px;&quot;&gt;fun1(1 - 1)&lt;/font&gt;" style="text;html=1;strokeColor=none;fillColor=none;align=center;verticalAlign=middle;whiteSpace=wrap;rounded=0;" vertex="1" parent="1">
          <mxGeometry x="505" y="550" width="220" height="40" as="geometry" />
        </mxCell>
        <mxCell id="KoFQPGKLHCBhvZpColBv-21" value="&lt;span style=&quot;font-size: 30px;&quot;&gt;fun1(0)&lt;/span&gt;" style="text;html=1;strokeColor=none;fillColor=none;align=center;verticalAlign=middle;whiteSpace=wrap;rounded=0;" vertex="1" parent="1">
          <mxGeometry x="641" y="710" width="196" height="60" as="geometry" />
        </mxCell>
        <mxCell id="KoFQPGKLHCBhvZpColBv-22" value="" style="endArrow=none;html=1;rounded=0;entryX=0.5;entryY=1;entryDx=0;entryDy=0;exitX=0.5;exitY=0;exitDx=0;exitDy=0;" edge="1" source="KoFQPGKLHCBhvZpColBv-21" target="KoFQPGKLHCBhvZpColBv-20" parent="1">
          <mxGeometry width="50" height="50" relative="1" as="geometry">
            <mxPoint x="599" y="720" as="sourcePoint" />
            <mxPoint x="725" y="600" as="targetPoint" />
          </mxGeometry>
        </mxCell>
        <mxCell id="KoFQPGKLHCBhvZpColBv-24" value="" style="endArrow=none;html=1;rounded=0;entryX=0.5;entryY=1;entryDx=0;entryDy=0;" edge="1" parent="1" target="KoFQPGKLHCBhvZpColBv-21">
          <mxGeometry width="50" height="50" relative="1" as="geometry">
            <mxPoint x="740" y="860" as="sourcePoint" />
            <mxPoint x="740" y="800" as="targetPoint" />
          </mxGeometry>
        </mxCell>
        <mxCell id="KoFQPGKLHCBhvZpColBv-25" value="&lt;font style=&quot;font-size: 30px;&quot;&gt;X&lt;/font&gt;" style="text;html=1;strokeColor=none;fillColor=none;align=center;verticalAlign=middle;whiteSpace=wrap;rounded=0;" vertex="1" parent="1">
          <mxGeometry x="709" y="870" width="60" height="30" as="geometry" />
        </mxCell>
        <mxCell id="KoFQPGKLHCBhvZpColBv-26" value="" style="shape=image;verticalLabelPosition=bottom;labelBackgroundColor=default;verticalAlign=top;aspect=fixed;imageAspect=0;image=data:image/png,iVBORw0KGgoAAAANSUhEUgAAARoAAAGTCAYAAAD3DN2qAAAAAXNSR0IArs4c6QAAAARnQU1BAACxjwv8YQUAAAAJcEhZcwAADsMAAA7DAcdvqGQAAD9wSURBVHhe7d0JeFTV3T/w32QP2cgi+04ggICsIoooLrghuLZarVprrW+pVrtJrbXWWmv/XfS1L62+alWqb6n7gooLiwqiQtkFAdkJEJYkZCF75n+/59yTTIZJMkvuZCb5fp7nPvfOnZs7dyZzfnO2e45r2LBhbiEiclCMvSYicgwDDRE5joGGiBznWB1Ndp+ucuEPz5CklARZPn+tfLV8p/2Ms259/Cp7Sys5XCbzf7XQftT2Lviv06X/Kb1k97r98t7fP7X3di7X3+CWCRP112jbVpf83/MiRUUu9djTtHPccvEMtxw94pKHHzrx+bY26TS3XHudvq6DB1zyrxdEdu92/nXpRH7naK757YVy419m2Y/0Y+9E7anPyd0lpWuyxMbHSv/RPe29zkNgwVJeXGHvoUDMucctj/61XiVSf+Xv0wm5pkZkyFC3nHOe/YSX3n1E4uNFevR0y8iRzrdBlJc1Xhde87zp9hMUdn4HGgSMqvIq+5GGBN2cde9tkf1bDsnRfcdk1Vub7L3OQ+4Fy8YlX9t7KBDZOToAbN2iVn5ZsljnUNat1bmF5GS1OsEnH+kcxaqVLtm40fmcBV4D14Xrg6QktaJ24HegQe7Ek/djXxY88rG88uAHVrAptveQU/r3d8uVV7tl9u3B5xQyM90qx4EcgK+iT2tO6qbX27bqtTcEmUf+5JLn54W3+JKVpdfHjul1S777Pbda8HlS22m1jqal4pHx+WsbVA4GfB3v+bxh6ja2fb7HClpJ0n1Qtso1ocjztbUPf+NtyrfGWsWwXg1Brup4jRzdWyQrXlp/QjA75YI8mXT5qBbraFD8Sz8p9YTra24/zpc7qZ96/bqaOinYcVRqKmt91tGgjmry1aMlu2+mJHaJV8cjd/fJC6vbNPCiziNvmA40gDqSuX9tTMjm+V69dBAxCo+KPPeMSyV+JKxRo1tOWL+5z+Uz+OB1J5wq0q9/42sgmOC8KH5d9Y3G18W+D6x/RUu5GRSpzr+w8VxlVqb5q82hBae7fqoDxxuvuVTxbdhwt6Sm6nPPf6Fp7uq+++slK1tv47NctdL6/n4W/GuT1mqOBgno0M5CtY1Ei8dYPB8XHyhRjwH7zILE1Zrug7KkV143FWAQOJCIESS863Uuu/scGTF1sHoex+L8SMD4W1Q6Ow3XhAWvj+vENeC1c/pn2kc0hWvC83HxMepaa2vqpdvALLUfQSgUSIzIufzxL/Uy/QKdiBA4PvnYJQvetA+yIICY50utfxHqK8ySlt60YhT7kPAAa89jsXgHGZwT14BEfNpkt6SlNg0ohnld5JLwN9fYlbO+4H3deHPT60VAQEUzcmvBwrXBiJP1ucpK9XvFua+4qul5//rfLvU54nnUN6EyGcEHAZuCF5uTk3O/ve3T9lV7JTE1QfoM7y4Hvz6ifrVTs7s0eXyswP6GWlA3Ypa80wdIYkqC5H91SAq2WynBQ+7EvtK1R5rEJcTKsv9bI0ufW6VyDwPG9JYu6UkSnxCnXhuQwPMmD1CBC8cueeYLdf4je4qk55CT5MjuooZjjR65Oeoaq45XN1tfM/KcXJ/X52v/lGvHqetCvdNLv3lfnXPX2v0yclquxMTGWJ9BacM1IOfV2w6eKD6ufGOjem99T+4hmT3TJT4xzvrbfHVsIPBlv/E7VsI+3coxWb+6x6yM0apVLnn1JZe8+UaMbN7ksooHOpGjGPSNa9wqgT/zlEteejFGln3ialg+eK8xGKxZrfcNH6HPu3SJS555uvFYLJ4QEG79L7d0tWLsp8tdMu9ZlxQXu6xckQ4O5vj8fS75aKl+vOoLkbOniSQkiCx8t+n5ANd7+506WL1vXdtT/6uvN8UKBv2t3FKatca5gnH5lTpI1FS75MknXPL2Apdst74Sk63PMblL0+uprHSpz3HxIgRXkfQMl/S0fvMG54qce75b0q0AjecpMAH1oyk+WGpvtR0UJzybvsuOlttbjfqO6K7WO1bnNzl29/oD8sKct8PSrJzdJ0OtUUwzUARC8clb90E5av2ftzY1KSateXezWmf11ucK1IQJOsuP3AuKJw/cHyOvWEHGMwdhIEEY/QbohNyatDS9PnpEr30xuQ547h8u9frI7fTpq3bJ4cN67a13b73Gtfsy2cqUIsiguPKOFQiMxR/qtSnOBMqz9WzJ4sbclnmvzV0PoMiEzxlFLgRsXF9zFd3UsoACTaWVO/B00EciC1RFSaW91bzULOtnx1K434/aPAepOiGv+hXU0XiLT4xVaxT/UBdllmFnDFT7zfOBOnpUJxIkuh/+qOVKSyQotO4gcaD49OsHdDEHuaLmgg6agKGlOokZM3WCe/nFpnUbqKOB4maqn8aM0+sdO3yfG/VIsOlLvTaCqZT2lK1jvgoonu/LVFyXlvk+PwIqPt8Hf18vsy7XOS3k1tautg+ggLQaaJBAhk/RCWSgVazBY6w9H4ezn0x7qq0+Mai0BJXE3ksoUMmLSlkEEEAFLoIH+r74qkNABSp+kVHngISGoISgc7sVpLyDjQlYpp7GFyQ+BCPvRItzofIW9jUtwTY4ZYx+/u231OoEiVaRCo4f12sDrwlI5MEwLU7eAQ6VwnD4kF6DZ3C55fuNFeT4vPE5oqk8HM3yHVGrgQaJAy0wgMpMPMba83HXnh75dAeUFepvnylCtRfT2uUpPinO3mpUU6UrwdFq9b+3vXzCEkpPZfzCI4D87Mcxqi4DiR6JHwEEPXS9IWeD4g2KWUgsOB45IhRVPPWwfytQUdocFMEgP7/pMZdcqnM54Cs3hOKLyREEmkMxOaHmimSt6WMHFO8md5OjQWdDAxXVCC6JiboI968XXHLvL2LU5+2reEr+azXQIGGgAtRsYzGtTuaxd9N1W9u7qUCt0YqDilZ/7PtS/w2CQ3OtPEX7dWtZ7sR+ag0o3pjA6gkVuzDjrqlqDTgvmuW9FezQlRyoKDbFJSegLgMBBAkCCaNQNw4qJifgCYmlurrlBJOa1vTvPHM+Jnfg2fENOSnVktNCTshISGg8V3PFtyFD7Q0L3gNyQqgf+fB9e6cH5MLQ8oZWoebO11wHxOxsvX/HdrVSf48gi+D90G91F4GWipAUGL/udTL9ShBU4Mp7z1eVo+axgSCAlh4Didz0jTFN3WsXblEVuqrIZeWGELQ8K3Ob248EjkADqCsxvZRxfrQ6+aoQNteN18Y14FhsmxwFgsDUb49X2+YacTya85Fbwz5zbvShQesXmNfHsajMxmfhfb1ojjc5P8/rxWfy4ZOfqYpspyDRoE4GEABMLgWJDjkL5GrQjOuZu8Df3PMr/bz5GwQGNIMj9wRI+ChSAM4ByB2haIEcAhI+9qMlzLNC19e5cS04xvTaxX1QqAsBz3MDEr/n+QzPe6wQbL0Dg/kcEKjMezBwmwXceXurv7XUBvz+lM0vOqAy0wQOTykZySrxmQUJW+23EpfZh6byYKCZGDknJGz0nzHnw02b1T4qZAFBDcfjOsyxnhDwcE4EAlxjYkqibPp4e0MFNfZl9tLFQtN5D5+DeX0EpK9X7lHPe3v9D4vVuUx/H3O96E+TnOZsX3i0OCH3gkSNVioUrbCgbwqCgneQATxGBS8SufmbBKsIgc5yBuonUN+DhOsZBFC0QEc8vB72V3jVs+DcCBSe596/39WkfgQBB+cy58CC94AA4ivIAG5pwLXgvL5umRiqfxfUTZyeTEtUsPU+FDiOsEdEjmO+kYgcx0BDRI5joCEixzHQEJHjGGiIyHEMNETkOAYaInIcAw0ROY6Bhogcx0BDRI5joCEixzHQEJHjGGiIyHEMNETkOAYaInIcAw0ROY6Bhogcx0BDRI5joCEixzHQEJHjGGiIyHEMNETkOAYaInIcAw0ROY6Bhogcx0BDRI5joCEixzHQEJHjGGii2KD0enlsynFZOqtENl1zTKb1rrWf6djwPvF+V15Zot7/uJPq7GcoUsXm5OTcb2+3mx6ZIi/fkyB3zIqTrflu2X3IbT/TsodujJdHbo2XvifFyKJ19fbe4F08wy1XXiVy1TfccuHFeklJFdm8yWUfETmQuJ47p1yGZdZJSrzIhqOxsig/Xg4cP/G3I9jPN1JlJbllSEadZCa61fu/YlC1lFa7ZN3ROPsIijQRkaM5bVis9Mp2SZKVYC4YF2vvDa/vfs8t0y9wS4+eTRNhcrK94aCRI90y+3a3/PEv9fLoX/XSEuRknphabgUYt3y4L16mvJ4u3/wgVVYf9v3ZOfH5rp+bqJb2gPeJ9zvxlXSZuzFJ7ZszrrLT5OiiUUQEmtdX1MmS9fWyYZdbHnuzxt4bPkjoo0brAFNjvfyG9S5ZtVIva1er3Y65/ga33PJ96xd6qFvirUDgjztHV6og81lBnNyxrIsUVrac42rvz9dJczcmyrwtCWr7thGVak2RJ2LqaH70RI1c98dqOVhk7wijMePsDcvLL7rk6Sdd8vw8vWzcGJ5i0+7dLjl4wL/XOq+PDhYP/sf/7FZ7fr5Oe3hNspTXuGRUdp3K7VHkcQ0bNqzZAjvK9u8/qLPH0++tOuFLuvThBMlKc8ntj9fIRxv0Pxh/c8fMeDl9uEs9V2mliXU73PKrf574JfeV9b7v+Vr1C+ztxnNj5dqzdBEA51yxuV7KrR+wGafGyIIv6uWe54L/pUauYsJE/THcebvv2DvnHl2sQjB4+KHGgGCKOcj9IDCBOR+O/fwzkXPPd0tqqkhZmciny13yzoLGv+/f3y0lJSJFRS6/rgPFg7lnlqs6GRQfWuLv54u6LnyO//qozvr/uWTy8BhVzNp/1K32PbdIH3/Z5Fh54PqW60GC/V+Mn36WDJs0VjZ8/JmkZKRL3+G5Ep+QICVHi+TLZStlx/pN9pG+oVIYARhFKeRyKLK0mKNBYEB2G7zL9meNilGBpLDU3RBk4O+zE9SXtkuSS7Yf0H87Kc8lz96VoIKQJzxvFgSP5uAL/pMr4lSQwevlH3HLtNExMm5w8LkNJPBJp+klI8PeaTH7zBKKhAS3nDlVBxnAGvVAnudFTgZBxl8jMnWiX3Ok9boWfz9f49ShMepzxeeLzxmfNz73UQP09RWVNZ7P8HwNLPsLQ8tR9ModIINOGSElRwqlorRM0rMzZfKs6ZKRk2Uf4duWYv15pMUzRxOJWi06rfhKf7GnnNz0i33F6frxup2NXzrkOgb31MFg5m+q5PIHq9Uav4z40n7n/Ka/hnjeLPhyN+fqKfq1UM9w9hx9PHJYWenBB5ozzxK59jq3WlA/Yph9ZglFVrb1xU/XuR0EFGPCRHsjCIEkJH8/X6N3js6d4nh8zuZH5tqz9P8NPyjmfIZ5bJb/eevE3Ggg0q2A8v6zL8rCp+fLq48+JQW79qr9ueNGqXVzNhXp78jQrgw0kajVQPPyMv3FOWVQ00R9ykD9+Kn3Gmv6TTD6dLNVbLCLSVgvWKnPgV/MYJhf1N+/2PizjPOi+BTpUOeDItUjf3KpohOkpel1pEER1zN32h7N4Ad37pXDe/fbj6xcVMERe8s/KXHhv2ZqXaspHwn68y1uVWZHjgWQ8FFsQk7F/OpBjvXrDV9sbRoA9gX2XfEJuSQTvAzU0QQLiR/1IFiQ4zDMPrOE6vPPGs9dVto0WEeaw8faP5GWF5fYW8Epr43sz7iz8islLfuyafFpxql6/dHG8OUoKhtz6xEjMzP8CbO0Rv/L0nSLLtlM3dXW4tB/HKjt+fVfQasDKhNN8emskfrPFnzRtDy+57BOeN5FpD459kYIUMfjLUX31QorVPAaY8baG2Fk6iJy05t+9uGG3Cx4V/C3l7yu+vPYX85AE4n8/q+g/I7i0y++oVt/0MLgWWyC1V/rHA6ats0XEOsZE3Xi8C5S+ct8qf/7+4092nBeNMOGGyp40YsYTdG4ZcFAyxVasgLlT+uXpyX5cRHRZ6TCzmF6V/C3B9ySMLm7ritcdtDPXo8UVn6nVFN8utxubVq07sRfVOR8EIBQf/PmrxPltXsT1BqBCcHimQ8aK45/eGmset4saPGA2y5q3I8mdEBfDkDTK/ru4Dn079mWH3jCDta2bfaGBb2I0d/lq82NuSy0XF17nf0gAP60fnlbUaAT973jK9Tal0A+32CYvjjo22T+J1he+Fn4y3S3Dtc9pdG3aEdJ+H98qHV+/1cQRFAhi1wNmNYob/81t1p12jpe6VZN3YDK5Jseadphr1dWjHreLOa8CEpmX2aq/nu89p9frVXBCkEMz+GcLzVzDU5Y/KE06blbeFTk1ZftB2H26Poklas5zfoVR0c1/KJ7C+TzDYav/wmWcJs9skpuyNPZqz+sDcONaRSUFnsG04lQ1EHzdLhuTWgO7t42N1YCfs2R0Jq7sbIjwXu/e0yFKjqa9//w6iSZt5U9giMV85kBQse79g4yYO5gxt3bhyp0nU2GR0V1R4b3ifcLeP/XL0plkIlwzNEQkeOYoyEixzHQEJHjGGiIyHEMNETkuIArg9Fv4erBVdItWf/ZiPke3VmJiHwIKEdzw9AqK9BUqiCDfhtYiIhaE1CgOdseZR6DQaMPR2tDSRIRQUCBxswZZIYqICLyR0ARA70wYfxJnD+HiPwXUKAxQxTgZj5fN/IREfkScBmo3M7MDEhrv7FQiCi6+BVocLcsmrX/fX5ZQ4tTZ7hLmIjahl/9aBBgcLcsAszbu+N5pywRBcSvQIMcTb/UOpk5oEbVz+wsiZFL3onQOUOIKOL4VXRCMen1nQly85IUFWQGpterqVmJiPwRcGUwggysY69gIvJTQIHmsoF6bNbPCuKksLL9R5kjougQUKCZ2E0Pn7g0v/2n2CCi6BFQoOnZRRebeqWwDw0R+S+gQPPmLn0LAqa3QJM3FiKi1gQUaNDyhGktzKj7ZiR6IqKWcBYEInJcQDkaIqJgMNAQkeMYaIjIcQw0ROQ4BhoPmDT+sSnHZemsEtl0zbFOcz8X3ife78orS9T7x020RG0p6gJNWoxLXuzdRZb3T5G8hNbvtxqfFCuPdEuSDQNTGxbs84bEhX5B5/WpaRhz51h157jNAu/TzGiB9//8uWVqxguithJ1zdsIEs/2TFbbc4uq5fFiff+VL9O6xMlj3ZPU9r7aesmv0W/179bf/Key8VcbORkEmZR4txoX+f5VyR3mXq7bp1wkY3oNkPSkLlJdVytbD++XucsXypHyUvuIpjDAGabUUdufpKjhW4lCFZuTk3O/vR0VDtS6JdXK1Ryuc8tjVqCpbiFM/r1HkqRbx/7ycKXcd6RK3iyrVQvO4ek3EytkWGaduln0to9TpKK2YwSZhy6+Tsb1Higul0v2lxRJamKS9EzPlFP7DZF3Nq+2j2pq5aE4SbMC7ik5GIOoXl7ekWA/QxS8qKyj+WNhldx1qFJK65uPMr3iXNInLkblZBBcWoLiAjz4H51TCqd/TCuX302qULmqtjQtd6QMyemhcjE/ev0f8uM3n1XrQ2Ul0i01Xa4Zc4Z95IkeXpOsBqFHz++2vi7qnKIm0HjWsbRU12L0tIIMmOJSc0yFL+oodpQ0/3GMn36WXPerO2X0WafJ5JnT5Rt3/0A9vvQHN8qg0SPsowKXEueWywdWy4KLS1Xxra3qRib2HazWi7dtaCgmYb3wqzVqG7malqywcndwUT8dhIlCETWB5vOKuoalpIWcTKBGWEUmWHPEv4G8euUOkEGnjJCSI4VSUVom6dmZMnnWdMnIybKPCMx/fZIiczcmqZELkYOYM65Stf6EmsvpkZap1jsKD6m1sWL3FrXuntbynOlbivXnkRbPHA2FLmoCzS0HKxqWzVW+v/wzU+PkqR7Jark7Ww+gPjwxpmEflp9lNR1YPdCElG4FlPeffVEWPj1fXn30KSnYtVftzx03Sq0DhUrnuRsT1RjM1y9Kldd2JqgpbUwuB0WrYAKOCSQbDuyWCX0Gq0phFKdM7iYhtuVK3k1FOtAM7cpAQ6GLmkDjj15WcWlScqxahifot4bKYLMPS569P1gHd+6Vw3v3249EigqO2Fuhw9jMv/w8Wc5+I71hVlAMBt8/iDm0TCBBYPnWuDNl6qARcsukc9W+QKBoRxSqDhVo0NQ9ameZWm46UKH2oahl9mFBjigU5cUl9lbbQ18eFJnQYdBUUKMlbHdp4P8mVAIbS77eKHuLj8pbX66y9/ivvIO0wFH76lCBJhilNfojSGunVlxMLYy+K29bxSR0lEORKcXKjKAINcMqTmHmiZYqqZtTUHpMrVFcemvTKtXqNH/tcslJ8W+aHFN3tbW4039FqA10+m+RqYvITW+fbvd/P7NcdZDD7BJo+cLAYhNfSVdFqGACjHGsslytB2V1U2tjcv88tUYOpyV5XfXnsb+cgYZC1+m/Rej52p59RlA0MbmXb36Q2mazgH68Y7Nanz4gryEXg/WFw8aq7S/2bFNrX5DLmtxdF72WHdR1RUShiIpA49mahAUtSYCWJbPPn/uemmP6jNw7PrT6m2CgaBRq7sUXUy+DWw/++7Kb5S8zb1JrdNZDpz0Uo5pz6/BKdTtGa32LiPwVFd8iz9YkLGhJArQsmX2pIbyTR9cnqVwNWnhw9zJ+0TuChxa9YuVsNkllTbX07Zqt9m08uEd+/d58te0L6osw+Dz8YW34e0pTx8Qxg21o8Xliarn6JQf8miOhocm5o8N7v3uM7iBo3j/qitqqGEfEfLENAQV1JOi/YmZ5yEjoHDEY79PMaIH3j46DDDLUlpijISLHMUdDRI5joCEixzHQEJHjGGiIyHFRWRmMvh5XD65Sg4jDiPktj61CRO0r6nI0GIEO9waZmQqwEFFki7pAc7Y99Oa8LQmq3wsWIopsURdoDhzXl2yGdyCiyBd1qdWMPDf+pMaBnYgoskVdoDHDOuAGyI5y8yNRRxeV5Q8M3g0DghhLl4jCL2oCDe4wRrM25j4yLU6d4c5qoo4gavrRIMDgDmMEmLd3x/PuYqIoEjWBBjmafql1MnNAjaqfwYRrmAuJiCJf1BSdUEx6fWeCGvoSQQaDeZvpbIkoskVlZTCCDKxjr2CiqBB1geaygXo8W0yshulkiSjyRV2gmdhNDzm5NL/luaOJKHJEXaDp2UUXm3qlsA8NUbSIukDz5i59CwKmBEGTNxYiimxRF2jQ8oSpQMxMBWb0fiKKXJwFgYgcF3U5GiKKPgw0ROQ4BhoichwDDRE5joGGQjIovV4em3Jcls4qkU3XHIvI+88wvAiuDevOCv8XfAYrryxR/y/cpBxOsTk5Offb29TO+vd3y8/muOWiS9xSWyOya2f73GJx8Qy3XHmVyFXfcMuFF+slJVVk86am14Mv63PnlMuwzDpJiRc1hMei/PiGcZ3D6fob3HLzLfpaB+eKfL1NpNK+RaXO7ZIrBlVLvVvkjV0Jal9ng9Eoh2TUSWaiW/2/8HmUVrtk3dHw9LBnoIkgl84SGTDQ+qfEinTt6pJln4QWaCadZgWuu3XiKyoSyd/X+vm++z23nH6GW1K9RuA4fMgl69c1/j1yMggyKfFuNY7zDYtT5Z9bE5sNMo/+tV5dx769IgMHibquc893ywfvNZ5z2jluueVWt8y8zC1TprolKVlk21b/PoPsbP2ZJSaJnNQNn6GrITDimm7Kq5buyW55cnPbj2Pkz3trb/gMXt6RYL9/l5zarVam9LRyOUVxsqvU+R8GFp0iyLat9oZl3z57I4xGjnTLqNG6W1WNlaPasN4lq1bqZe1qtbvBnaMrVZDBza13LOvS4g2uCHiAc27c6JIhQ9VD2b+/aZCZdblbykr16yVa6QH7/LVksUsefsj6hV6rz5lsBSlPK6zrxPW2ddHOn/cWaeZuTFTTFcFtIyrV2mkMNBHk889c8sifXPLUEy55fl74v6hjxtkblpdfdMnTT+rrwIJE5Om8PlbKsjz4H68U7UOXLnp99Ig+B4IIHD6k1zDpNJ1Yn/i7qNfDsfH6bpOAIDcDnkEbVh3SQ4pM6qavu634894i0cNrktUg/+hZj9yp01h08pOpAxgzViQ9Q+TG7zRm8Xv1libFCpOVxoLn11i5ge9+T+S6b+ssdb9+Yu3zffzk00XGTRDJOanpOcHzGpAImytmmONGjVYPFWyb18CCc3gXzUafIuq9wNNPNv8bhFzBJf1rVJ2MP0WRKWfq8371lS5+XXChqKLZR0tdDcU5HINE+8nHLsnNFZlsFd8qKkQWL2p8T+eeL/LZp02vGVC3dd50vD/rdXq5VdHzw/ddcuxY47GYB+xbQ6olxtqFIkRz5oytkNtHValjsP3gpAr5+dhKuXpwtawvjDuhaOjPe3PK+OlnyTnfulxc1ssMOmWEnH7ZBTLmnDNkwMg8qa2qkaKCw/aRvpkgU1QVIysP+a6rQQU6isi9UtyyOD+IyG9jjiZAqWl2HYY9QSbWEya6VULwBc+fc55YWWr9PAIEiieocA1WQoJbzrSCi+c1TL/A3ZCNDwQSKf4OS4bHFOZmn1k8jcjULRZrjvg38Jg5r8ll4DME5OAMFBXx2fz6Abfc8n39/PwXXKo4d9/99TJokFs+WKh2N8C1z77dLXf91C2nTXZLWqq7IRe0e3fTRL6jJEaNzIjEhYrR5ozN0ffPIYHhxt0CK7DgvjoMiP/bicftoxr5896c1it3gAo0JUcKpaK0TNKzM2XyrOmSkZNlH+HblmL9/0uLbz5HM7WnzgFOt3OwwWKgCRASdXWVyL+sRPD+ey6V3QcEm8xM/SXDc/hlNk4+2a2OfeO1xuNHe+Q2cLxZ/JGVbX050q3iwEpXkwQ1YaJef/LRideAbc/XWfCm3n/mWSLXXudWiwmGYPaZxVNLX0xf0uyK5a1b9BqfYeFRvW2guITPB+8Jn9VDv3WpohyCzo4dLnng/pgmxTcEoB/+yC0DBrrVe8Px7y3Uzx884PtzXGu3sJjE44u5SRfHzHgnTU25fPMSHdHNyI6e/HlvTku3Asr7z74oC5+eL68++pQU7Nqr9ueOG6XWzdlUpAPN0K7N/z//sDZZ5Vx/tzrJ3hMcBpogPPeMS/1ivbPApSohjaF5eo3n0AJhIKGYY01Z3hOON4u/UIeCxIk6nTJ7pAzzpUfw8b4GbHu+jnedi5NQSXvn7TFSVKRfE9sIHN7w+ej6GZGf/NytcjG+6qsQZG68WQe/5/7hkldecqlz9+mrdsnhZkoMK+16GjN4mjfPviWPb0pSuSDomqhfCzkib/6+Nycd3LlXDu/dbz8Sq8hkfYABSIlr+kPiCWN1I9hi1IRQMNAEwTMXgURhmC+6N8+KSfPFxDoUnkEJLTXBQiLG9WBBbsIw+8wSDsgRonkdOaivNrtUQM8brutnPItvM2bqYhaCrWfA7Ndfr4uL9dqbSSxn9PCdo8EsG4CiEmZENcz+gorITC7lxSX2VnDKa0P7LvqDgaaTMK0jbQEVq5DWhn3fEEiQi+ndW+diCgtF1b2gLgrFUgQfNHcjN9Ojp1sVTzyDLYIUKoLBMyfnDcUA1Lf4amkZ1lUHlOUHm1Z6mv1biztWcjF1beF4Xww0QUAlpJGdY29YWvqCt4eDB+wNy4iT7Y02YMr2uen6i9oWLp2lczEoduTn6z40CCa/uU839wPqbPoNUJvWMU1/hS+5VOdywDMAefv4gD5oio9cjamrMEUsw+z/yq487Sjy7AC6v5yBJiJdcbX+BUbLkWenMlQImlYcz2IUtrHPM0AZ+IXGc2Yx0Jph9vn6O3+giGcqn1HRixwCiiFYUEQJFooVbd0H495fxDTUxaCuC0EDdVuo+ygtVbul5JhIlt2QkuRRN4n/A3I9pq6qJei4B2f76Lg3yA6c67265Te3P5qh5W1yd/0ZLPPKwXlCVwY0898wNLT7xBhogoSsPJqUza8oetEiUZhWHGT5DWyrfdZz3lDfgOfMYiAwmH2+/s5fn61o/HVHwEKCxGJ6AAfLJNh7x1eodVsqtwPGsOE6KH7vNrcKmB++Lw09lPH5oNkbC/4PqF86elS/V+xrrvsAKjdVkMw6MTeGIhWYSmCjuf3BQKLFzY24sbE93Tpc9+xGUbKl94UOjmjmz8sM7QeFgSYI6M9hfj2xxpccvWgjEVpk0Gzs3eTrz69/Sx5dn6QSLKYnRqLBL2RbQQUvmqzRy1blVEpdqnUJOTTzHAIPmvkBzeHIDZn/C/ZXtJCONxTGqkTm2cpkbk1AwvPU3P5goeMbmD4s7cH0EQI0X7fEFBu3FIUWKjhmsJ/wy4ovPYSrFSbSIaE+MVXfWAlIjPjiItcQyVAMmDOuUt3vg6744YRZO1SHwE9SmrRsOQ3/q7vHVKiirvl/YZD/eVtb7tndVtfLFENBM30scPe2mZUiIyHyf7dMnQR6AYdbd3tesnBP54z/i+mMiP/X9YtSWw0yYK431KDIHI2fmKOhtoD6GQTls99It/dEtra6XqYYojAxLXS4fyoatOX1MkdDRI5jjoaIHMdAQ0SOY6DpJFDejvTZCpyA99meo/+TxjqaIKHnKcaUwQ1+BjqSoYNcpInW/i5tIdj+I9S2GGiCgPuEfHXhRw9h77FT2hrujTprmqgBn8ztDy01tyOBodMVEhn6T9y/KrnFgcSjRe+MLLls5Kkyumd/yeqSKl8fOSi/eOcF+1nf0CN29kg9GHe4O8x1diw6BQgJ3d+ZAtoa+vJgxDnc52OCTGsCma0gWkzoM1genfUdOXvwySrI+Ks9Rv8njYEmQIHMFOAU3PPT3HCV3gKZrSCabDy4R55duUTmLvcaSLgV4R79nzTOghAgf2YKmHOPW83y6D3TgJntwHOGA+RS/JnZAI4Vi7y/UA8JionmzHUsfNd30EFFqD+zFYQ6mn647S8pko+2b5JtRw5ITkq6TBk4TAqPl8mibRvsI1pmgkw4Rv8njTkaP2B4BTM2jL8zBQTKn5kNkJMxY9P6I9DZCoIdTT/ahHP0f9IYaPwQzEwBgWptZoNgBDpbQbCj6UebcI7+TxoDTQRpaWaDcAh1NH1v6L/S2tKe/XnCMfo/aQw0fkDiN7MBIMdhmH1mCVVbzWwQrFBH0/c2Yn5Gq0t7NjGHY/R/0hhowsRMLhdOTsxW0BGEc/R/0vhJOwgVvAZalcLNidkKOoJwjv5PGj9pB6GCF72I0YTtOVg2Wq6CmdnAn9YvTyiWsM9IUxjbOJyj/5PGQOOAbdvsDQt6EWNkPsxZZOgZDuwHAfCn9cubk7MVtJdLho+T3198nVq+PX6q2odbEsy+2WdcqPb5Eu7R/0ljoHHA4g+bTjSPidBefdl+EGZOzlbQXk5KTZfcnB5q6WUFGEiOT2jY1yfDnh7BS3uM/k8ab6p0EIo6aJ4O54T6vvDu7fYb/Z80hmsHmXmI2lu0zlbQFtp79H/SmKMh8gGdCaNptoJIxxwNkRfTQhctsxVEA+ZoiMhxDNlE5DgGGiJyXNQUnTCKPZon0SfklR3xYZ+cnYiCFzU5GvRwRf8PBBt0ukL3cCKKDlETaDCwNvqC3PO5zsmMzeGNgkTRImrraDiWCFH0iLpAc449IttS9tgkihpRF2jMLf4L9nA0J6JoEXWBxtwYR0TRI+rmdcrrWq+6iM/oX20FHZE6t0sOsKs4UUSLukDz7p54Ka12SWyMS67JrZYhGXXy8g4Wo4giWdTd64TBmzDNK/rUvL07XjYWxXWKcVWIolnUBRrcvg+YqoOIokPUVW5gjBDgYNtE0SPqAs1ye+T6i/pxTmSiaBF1gQbDMYKZhJ2IIl/UBZq+KbzHiSjaRE2gQWsTRqafM65SPV5zhC1NRNEiagINbj3AaPaoDJ63JYHj0RBFEY4ZTESOi7o6GiKKPgw0ROQ4BhoichwDDRE5zq/KYM5AQESh8CtHwxkIiCgUfgUazkBARKEIqo6GMxAQUSACCjScgYCIghFQoOEMBEQUjIACDWcgIKJgBDQ4OWcgIKJgBBRoOAMBEQUjoLu3OQMBEQUjoEDDGQiIKBgBVbBwBgIiCkZAgYYzEBBRMAIKNJyBgIiCEVCg4QwERBQMvwINZyAgolD4FWg4AwERhYKzIBCR4wKqoyEiCgYDDRE5joGGiBzHQENEjmOgISLHMdAQkeMYaIjIcQw0ROQ4BhoichwDDRE5joGGiBzHQENEjmOgISLHMdAQkeMYaIjIcQw0ROQ4BhoichwDDRE5joGGiBzHQENEjmOgISLHMdAQkeMYaIjIca4pp53KeZ3ayYjcfvZW63736xvsrdZd/u0H7S2iyMAcDRE5joGGiBzHQBNheiRUyPd7fCUPD1gpj+cul6tzdtrPiGzfeUDOvPTn8oO7/ybP/XuRFBWX2c8QRbaAAk23DLf866fV8s79VTJ5WL29t/Pp3adWfvyLY3L3fcVy2hlV9t7Qndt1v8zps07Gph6VrnHV9t4Tbdi0S556/j2Z+e0H5IvVW+y9RJEroEAzLrdeume6JSle5OyRbRNoFv+uSi3RZMKkaunSxS3x1udwytjmA0IgBieXyqVZeyQppk49/rS0u/ztwAj5pKSHegy9e2XLs4/dJXPuuFp69chS+37y66dVTocokgUUaBb+J1aWb46RzXtj5OkPYu29nc+unY3v/eCBtvkcrs7e0RBk/pg/WuYV5Mr68kw5WJ2s9kFSYoIMHthTLjl/ovzlge81BJs/P/6aWhNFqoDraH71fLzMfjxeDh1z2Xs6n3WrE+WZJ1LlxedT5I1Xuth7g4d6mQFJur5lTVm2bK9IU9st6d0zW274xrlqG0UpLESRyq9+NL6KNv/v1TiVw/H0i6tq5fyxdfLaZ7GqPme8VdRCMaugyKX2vbhMH3/h+Dr5+RW1ars5H6yJld+/HGc/8s8p46rk0ssr1PbKzxNljPUYXvt3ilxwSYVkZNbLrh1x8vwzqWo/3PvbYntLpKZG5FBBnOzcHidLP0yy9zbyPNbYsDbhhGAz68rjMmpMtRwuiJV1axLk9KmVqqh1/LhLVq9MbDi36UczI2uvtexR2yguISfjzVc/GlQGo54GUJxCTgfYj4YijV85ml0Froal0kqMrRk7sF7OGF4vBwtdUlwuql7ntotqZXhfXa9zrLzxfIbna2ApOGY/ESQEGdShYJlxxXEVZGDAoFoZmuf7TeBYVPROOatSrv9O6C06CQlumTipSgUZwBrnRkD0lBzTGHR9BZnmZHZNlVEjBqjtDZuZo6HI5VegufmxhIYFwaM1PbLc8st/xqvjr3goUdXpwGWTdGJf8VVMw/kM89gs//ggsNyMN+RMtmy2IoelvDRG5TyM5JTGiuy3XktuWJZ9lCTHivS1IiB5BwTPY/2B4NYltV69dv6+xvcz6pSmgW5wUom9Fbh+vU+yt4giV8B1NP7YtCdGBRNj35Hw1+esXhkvW7/SiRsVtp4VuJ5Q32IWFGnmPd1YrBowUFfOGp7H+mvhgmRVtEKdDopOkJLCuz6oc3Ek0BwtiY6K4oyMelWfcvuPS1T9C5bbfhR87sIXz6CEnBVRZ9Spv/nXfLtcVdqa+htAPU24ba9Mt7cCt2bDdnuLKHK1e6BBixSglSqcUCF8UnddNEJdzoO/6tqwhFthbWOuZ3RKkb3VOrQ67T9YqLZHDdeVwkSRqN0DTYXdsfabU5vWhzjNs0K4pER/DChKebY2paXXq1YoQGBC5bBZDBxj9pljA/Xl8caWpslpBfZW6z5dudneEhkzcpC9RRR5Wg00N59fK/+4o7phQYsS3DitrmFfKPc9LVytK2kvP61OXr2nquGcc2/zox09BLu2x6t+M4AmaNTP3P7TEunWo071fwG0PH3n+zrwTDu/UvXRMYuBY8w+3JoQDPT+3VWpK6Fxn5M/uZr8A0dl3ouL1DaauNGBjyhStRpoumdYiam7u2FBBzy1P7NxX0YIrSjoxPf4u3GqCNU1pfG1nHbsWIzqyGeCCqBpe8Groff0DcZLRwdJZb2+lh/03CQ3dP9aBRz0GjYqq6rVfU1vf7BSfnzfkw3Fpp/cdrlaE0UqjrDXjrxH2Jucfki+mdN4zxMsKu4lLx0ZqHoGI8jcdMcj9jPan3/zXTl1XJ79SGPPYIo07V5HQ41WlHSTh/edou7cLq5t7GDoDUWlW66/QN78530nBBmiSMQcTTvimMHUWTBHQ0SOcw0bNow5GiJyFHM0ROQ4BhoiclzARafZI6vk6sFV0i1Z/9mI+RlqTUTUnIByNDcMrbICTaUKMhuOxqqFiKg1AQWas3vre3nmbUmQb36QqhYiotYEFGgOHNeHl9awaoeI/BdQxPhwn77RafxJwd2lTESdU0CBZkl+nJTXuOS07rWSlcTuN0Tkn4DLQOV2ZmZAWvBDQxBR5+JXoBl3Up1q1v73+WUNLU6rD7PFiYj841c/GgSYUdl1KsC8vTte5m31fxYAIiK/Ag1yNP1S62TmgBpVP7OzJEYueaf1aVuJiMCvohOKSa/vTJCbl6SoIDMwvV6m2X1qiIhaE3BlMIIMrGOvYCLyU0CB5rKBevDtzwripLAyOiaJI6L2F1CgmdhNj2W7ND+0ebGJqHMJKND07KKLTb085kQiImpNQIHmzV36FoQb8qpVkzcWIqLWBBRo0PL08OokOVThUv1qsBARtYZjBhOR4wLK0RARBYOBhogcx0BDRI5joCEixzHQEJHjoi7Q9MgUWfhAgnzxaKKcNYpxkigaRF3z9mWTY+WB6/UtEAu+qJd7nqtR26FYP1ePrzN6dpVad0YT+gyWS0aMk8HZPSQ5PkHt23hwj/x77afy1aF89ZgoWFGXJXh9RZ0sWV8vG3a55bE3Qw8yJHLJ8HFy9zmXycge/aSiplq+PnJQrfH4nnOvkN4ZWfaRRMFhhz1LZ8/RDOvWW+6aOkPe/HKlvL15tdqXntRFfnHO5ZKb00NeWrdCXlz3qdpPFIyoCTQmGHi67/lalcPx9NCN8TLj1Bj510d10iPTJZOHx0hSvMj+o26177lF+njPIlhzQimazf/fu6V3z2y1XVpWIXvyD8uC979QS7A2XXPM3mre7E9S1GwVbWH2GRfK2YNPlrnLF8rS7V/aexthHGnMXPrazgT55efJ9l6iE0VN0Wn7AXfDUulH2j91aIxMGx0j+UfcUljqll7ZLvnJFXEyaoAeR6eorPF8hudrYNlfGPxd6sUl5ZJ/4Kha4OS8fnL37VfJbTddrB4Hw0xD3NJyrLptxglCcWlSvyGy/1ihzyADU3vqf8T0PizCUsuisuj02r0JMrinq8UcDYLRz56ukY826GDxws8SVJDxlUsJR9HpJz+4XC67aLLK3Vx87a/tvZEFwWVITk+Z2DdXRvXsJxsO7JEnPvtASiqP20c0hbGk7x5TIf/6OkHdcEvUnA7bPrxuh7shyMDuQ+0bT//8t9dUkElLjdwixmUjT1XFpVP75dp7RNISk+ytE2Esacy/ziBDremwgebwsfYNLLkDe6li0u/vvalhqaqO7CIG6mKunvdn+dXC+bL46w0qV/P7i69jqxOFjD3eHHDdlWfLE3+ardZTJo1oWHKy0u0jgmMGG2tpQXEmVOg38+zKpbJg039UnxrkdIhCwUBjQYsUoNdxW7j5W+er9QuvLJUzL/15w2IqhoNlBhtraclIaLuc3KEy3crVJ0O3nhEFi4HGUqEnd5DvnN82zcIJCfFSUlYhjz/7jr1HZMb0Uxuau4M1Yn5Gq0swTdsoGqHfjCc8vtzOyew75jtAYm6vOWMr5IahnbdHNfknKlqdfnhprJx7SuM8Ur1zXA19Y0yQePSNWlX5a1qdvFuXmtsPN54bq5q+AU3hRfZQyMet9HPdH+0XCMA7//qNqvT9csseKSouk8yuqTJkYE/Zm39EBltr5Gx27imQXzz4rP0X7eumiWfLJcPHq6bs4zX6/aKjHqCH8A9fe9pny5MKMnnV7EdDrYqKHE2vrBjVnG0WBBm1P7txX2Zq8P1H0Invz6/WqsCVldZ4zmD97Zm3ZfvOA6rvDOpm+vU+Sd5ZtEoOHCpSzyNnM7Bfd7UdCXYVHla3HfSycjYIMFhM/5nmggwM7apb9bYUMWNMLeMtCBQ0VD6jXqgteyNTx8SfIgpad3ueLwYZag0DDQWtW7JbTb1D1BoGGgrKoHSdmyk4zq8QtY51NETkOP4cEZHjGGiIyHEMNGGA+ozHphyXpbNK1OBV6FEbDPwd/n7llSXqfG1xXxNROERlHc3FM9wyerRIj56Nl/7Jxy555aXIawFBMHhiarmkxOtrxeBUf1ibrIZYCJQZ/wWBy5zv4dVJMm/riaMPEkWSqAs03/2eW0aNPvGSV610yfPznA00I0e65axpIgMGuiXe7p185+3NZwoRENCpDUHhw33xcv+qZCmsbJtrNMNoqm12mKMIF1VFJyR0E2RqaqzcwXqXCjBY1uoxtR1z/Q1uueX7bhkytDHItObO0ZUqyHxWECd3LOvSZkEG5m5MlHlb9IBTt43QAYcoUkVVoBkzzt6wvPyiS55+UudisGzcGJ5i0+7dLjl4wL/XOs8eS/fB/zhzw+HDa5KlvMalbgMw/VqIIlFsTk7O/fZ2xBt9ikiv3nr76Sd9x8g597jlqm+4ZcxYkWWfNAaER/9aLxde7Jack0TWr9P7kUu5+RZ9LHIpt9zqlpmXuWXKVLckWbFh29bGvz9WLPL+QpcsWeyyik6N17HwXd9BBxW3l/SvUXUyT25uuQ4FMyb86NZZahybq2dOkTMnj1T7t25vfeI2E2SKqmJk5SHfxScUs547p1x6pbhlcb6f2TGiNhTxOZr+/d0y6TS9ZGTYOy1mn1lCkZDgljOt4JKaqh9jPf2CpudFTqaoyL+cDIzI1C1Ca460XukbyowJW4r1+dPim8/RcLYCam8RH2jOPEvk2uvcakH9iGH2mSUUWdlWQk3XFcoIKMaEifZGEFpK+N5u++n/yDW3/kEtmCHh9XdXqP0zL5ik1i3ZVKQDjRmywRe0ciFn9bvVzQ80TuSkqKqjcRLqfFDX88ifXFJmD3yVlqbX4RbMjAkpcc0HW85WQO0t4gMNEj+akLEgx2GYfWYJ1eefNZ67rNT/IlJbaIsZE8prw3vNRIHoFDmazMzQilbBKK3RH21aK5mIUGdMMHVBW4uZOaXI1WG/najgNdCqFG6m7iQ3veXbBEKdMSGvqz7//nIGGopcHfbbiQpe9CJGEzZuWTDQcoWWrED50/rlCT11/enjEsqMCVlJbpncXd83texg883WnK2A2luHCzTbttkbFvQinjDRLV9tbqy/QMvVtdfZDwLgT+uXtxUFul/LveMr1NoXVPqimPT4n36o6mawvuv7s9Tg5oA+Ntjvy63Ddc9jtCjtKGn+XzmpW42arSAvk536qH10uECz+ENp0nO30CqBvPqy/SDMHl2fpHI1p1m5DtxtjRyIt2BnTEAnPAQPQPN1SzhbAbW3DjvCHoo6aJ4O160JzYmEu7c5WwG1tw77E4eOd+0dZMD0YcHd2xjIGwk+2Glr8Xf4e8D5rl+U6tcQEZytgNobxwzuBDBYFoLc2W/412RO1NZYaO/gTIsXZyug9sQcDRE5jj9zROQ4BhoichwDDRE5joGGiBzHQENEjmOgISLHMdAQkeMYaIjIcQw0ROQ4BhoichwDDRE5joGGiBzHQENEjmOgISLHMdAQkeMYaIjIcQw0ROQ4BhoichwDDRE5joGGiBzHQENEjmOgISLHMdAQkeMYaIjIcQw0ROQ4BhoichynxLVsGJiq1qN2lql1R3L7lItkTK8Bkp7URarramXr4f0yd/lCOVJeah9B5DzmaDqwhy6+TqYOGiFJ8Qmyt/io2jeyRz/5zQXXqG2icGGg6aCm5Y6UITk9VC7mR6//Q3785rNqfaisRLqlpss1Y86wjyRyXlQEGhRtzPKzrETJS4iVp3okq8fL+6eofZ7SYlxq37t9uzQc80BOotpvjE+KbTinYR6b5bauCfYz0vB6+DtPvvZ7nqO168VrYP916fFqP57H4xd7d5FpXeLsowI3se9gtV68bUNDMQnrhV+tUdun9hui1t5mj6ySTdcck99NqrD3EIUuKgLN5xV1aoG8hBgrccZL73iX2pduBY8bMuJlZmpjony6Z7Lah+dwTEm9Wy5Pi1f7TbApq296XjCPzbK/1jooCObvwZ/rBQQV7N9cVS/7rNcdbv3dY92TpFdcY3AMRI+0TLXeUXhIrY0Vu7eodfe0DLX2NrVnjVpP76PXRG0hKgLNLQcr1AJIsAgWF+09rvbNLapW+5FrACRgJNLN1fVyoX0Mjn2ttEbtNwl8S3Vdk/OCeWyWN8tq7WcCY/4eWrteY3hijFyVr/8Ox35Yrl97Zmq8WgfKBJINB3bLhD6DVaUwilMmd5MQ6zu39Ie1Vs7raKz8bnWSvYcodFFXR9MnLkb+WKgTKyw53jRXYoobvzpcJaVWTsZ4vFj/zQSvoo/TWrteY5EVWBD8jC1WoAyFCSQILN8ad6aqFL5l0rlqX0tWH46Vb36QKq/vbCw2EoUqKiuDmyZInTP5Y2GVemyKRtO6xKr6D7OYnIFnPU24tHS9xv7atu1lgEpgY8nXG1Wr01tfrrL3EIVXVAYaf8zOTDhh6UwKSo+pNYpLb21apVqd5q9dLjkpaWo/UTh1uEBjiks3HahQHfC8F1N34gn1OdAeuR2nHKssV+tBWd3U2pjcP0+tTb8aonDocIFmyXFdZLg7Wzcr+6OkTgcn75YgT6sqdfHn+vTGylmcf1JyeOt8/PXxjs1qffqAvIZcDNYXDhurtr/Ys02tvU3rXStzxlbIDUObFu2IQhHxtyAgMf8sSxd7TKI2lamoZPWs/zDQZwbN2YCm4vwa/RbRsnN1/vET6kNQgYymZPA8Hrmjuw5Vqm1cx8u9k9U2ckAITrgetGbhtbBvcXmtquwN5HpRf4RiHVqjTIU1NLc/EH+ZeZP07Zqt6mtQlEJLFCqJ0Wlv9qtP2kc1pYJMXrW8tjNBfvm5fr9EoYr4HE2qdYVIsJ45B/MYz/ly35Eq+eXhSpXA0epjjkd/mrSYE/8IuaA7CipVsPA83hMCBI4xfVzQbI3XMEEL+9CiFcz1OuWhRa9YOZtNUllTrQIObDy4R3793ny17cvQrroYuaUozBdLHRpvqqQm/n1+mYzKrpPZn6TIkvzmi5JEgeDPFjXRvYvO0TDIUFtioKEmuiW75VBFx2l9o8jAQEMNBqXr3EzBcX4tqG2xjoaIHMefLiJyHAMNETnOr6LTyitLJCXeLeU1LnllR7w8vIYduYjIf37laFYUxKkxShBs0GsUvUeJiPzlV6C5Y1kXNUbJPXaX9LE5J3b7JyJqTlB1NOW17GdBRP4LKNCc01vfGb2UvUaJKAABBZrJ3XWgWbCHwzwSkf8CCjSoDCYiClRsTk7O/fZ2q/K61qtu6jP6V1tBR6TO7ZID7K5ORK0IKNC8uydeSqtdEhvjkmtyq2VIRp28vIPFKCJqWUD3Oj025bic16dG9al5e3e8bCyKU9NzEBG1JKBAg6lSYcR837McEhH5ElAFixmnxAwnQETkj4ACzfKDesDvi/pxXmYi8l9AgebDfTrQmIngiYj8EVCg6ZvCe5yIKHB+BRq0NmF0/Dnj9BxHa46wpYmI/OdXoMGtB5iCA5XB87YkcDwaIgoIxwwmIscFVEdDRBQMBhoichwDDRE5joGGiBzHQENEjmOgISLHMdAQkeMYaIjIYSL/H5UFakkSALTuAAAAAElFTkSuQmCC;" vertex="1" parent="1">
          <mxGeometry x="-350" y="50" width="282" height="403" as="geometry" />
        </mxCell>
      </root>
    </mxGraphModel>
  </diagram>
</mxfile>
